<svg height="46" viewBox="0 0 100 46" width="100" xmlns="http://www.w3.org/2000/svg"><g fill="none"><path d="m100 36.8940633c0 4.8593668-4.2269129 8.8348285-9.3953826 8.8348285h-81.12203165c-5.1651715 0-9.38271768-3.9754617-9.38271768-8.8348285v-28.05118731c0-4.85540897 4.21754618-8.83865435 9.38271768-8.83865435h81.12203165c5.1684697 0 9.3953826 3.98324538 9.3953826 8.83865435z" fill="#0867B2" transform="translate(-.099868 -.004222)"/><path d="m1.45118734.09472296c-.77506597 0-1.40580475.62757256-1.40580475 1.39630606 0 .77823219.63073878 1.41134565 1.40580475 1.41134565h31.76662266c.7741425 0 1.4104222-.63311346 1.4104222-1.41134565 0-.7687335-.6362797-1.39630606-1.4104222-1.39630606z" fill="#fff" transform="translate(23.670185 20.924934)"/><path d="m16.0949868.32308707-15.28680738 7.77823219c-.67889182.35725594-.96266491 1.18984169-.59762533 1.87968338.34063324.70171506 1.18905013.96992086 1.87730871.61187336 0 0 14.0630607-7.07097626 15.2386544-7.66939315 1.1850923.59841689 15.3080474 7.74670185 15.3080474 7.74670185.6914248.3548813 1.5319262.0787599 1.8877309-.6221636.3555409-.68984168.0716359-1.53667545-.6229551-1.8828496l-15.2765172-7.84208443c-.6812665-.33905013-1.9096306-.31860158-2.5278364 0" fill="#fff" transform="translate(23.681662 9.69657)"/><path d="m.13192612.15949868v-.01345646l-.01503958-.0141161z" fill="#fff" transform="translate(30.44314 27.058707)"/><path d="m.13192612 1.3792876c-.04577836.64802111.28153034 1.3474934 1.00923483 1.17163588.28390501-.07097625.6182058-.25554089.6182058.41952507.08192613 1.57440633.06781003 3.98482849 0 4.1914248-.07335092.20646438-.18931398.33034301-.64102902.18931399-.54010554-.17203167-.99353562.28377308-.99353562.94129287 0 .67255937.38878628 1.47440633 1.30501319 1.2671504.43905014-.08126649 1.44604222-.22084433 1.82836412-.18456465.37915567.04102903 1.15197889.11200528 1.76147757.18456465 1.07150396.15211081 1.28126649-.59459103 1.28126649-1.2671504 0-.65751979-.28390501-1.06437995-1.01794195-.89168865-.16477573.04089709-.42031662.04894459-.5353562-.12216359-.13957784-.2878628-.10804749-1.4555409-.0939314-1.96029024.02691293-.52823219.11200528-1.58707124.45105541-2.13271768.61108179-1.03047493 1.34525066-.8151715 1.49894459-.72546174-.3328496.41556728-.06781002 1.46662269.89010554 1.63377309.99511874.20026385 1.75593668-.60395779 1.72361478-1.85290238-.02440633-1.04155672-.82704486-2.31728232-2.87862797-2.08153034-.79327177.10171504-1.59116095.6646438-2.29050132 1.71965699-.05593668-.54485488 0-1.61794195-.45026385-1.55488126 0 0-.82084433.09854881-1.37031662.1126649-.36596307 0-.91385225-.20329815-1.29472296-.1126649-.38153034.09854881-.75211082.35171504-.80105541 1.05501319" fill="#f79421" transform="translate(72.398285 26.136148)"/><path d="m5.67282322 5.74788918c.09854881.35237467.6591029.24683378 1.13298153.2262533 1.26147757-.01424802 1.85514512-.57163588 1.85514512-1.57849604-.01490765-.82941953-.3287599-1.11319261-.63931399-1.29868074-.26965699-.1701847-1.3389182-.38311346-1.84815303-.20013193-.51332454.15290238-.51332454.57467019-.51332454.76002639-.01253298.1939314-.04736148 1.9151715.01266491 2.09102902m4.58100268 1.93878628c-1.46121376 1.01015831-3.98021112.52664908-4.52506601.80593668-.13720316.05435356-.10092348 1.22519789.04261214 1.38680739.15923483.19551447.80013193.21767807 1.15039578.09854881.53139842-.17810027 1.34670185.49287596 1.21583113 1.30883906-.12941952.8287599-.63087071 1.3435356-1.87823219 1.2403694-.58271767-.0378628-1.95699208-.2081794-2.42928759-.1758575-.47387863.0220316-1.5019789.2924802-2.45844328.1614775-.68746701-.1094986-1.21899736-.5895778-1.28601583-1.3102902-.03456464-.4832454.20343008-1.105409.77836412-1.22453826.60079156-.12453826 1.21253298.34934036 1.3207124-.22308707.08970976-.47467019.06846966-1.9641161.08192612-3.43073879.00395778-1.66358839.03311346-3.28548813-.05435356-3.54643799-.09155673-.30593668-.95026385-.06385225-1.15039578-.06385225-.52598944 0-.95171504-.64340369-.88324538-1.30725593.06794195-.70883905.46926121-1.28284961 1.61490765-1.28284961.56609499 0 1.37269129.13548813 2.06741425.23733509.71266491.08667547 2.05699208-.10184696 3.15131926-.18443271 1.0944591-.08047494 2.48773087.27110818 3.24709767.64960422.9160949.46675462 1.7550131 1.80791557 1.8156992 2.8621372.0930079 1.74881267-.3121372 2.96147757-1.8212401 3.99828496" fill="#f79421" transform="translate(59.64657 23.1781)"/><path d="m6.46437995 4.8555409c0 1.1676781-.32335093 2.70831134-1.80870713 2.70831134-1.27664907 0-1.65343008-1.51781002-1.65343008-2.64050132 0-1.30883905.51635884-2.58073878 1.65343008-2.60501319 1.16213721-.01741425 1.80870713.79709763 1.80870713 2.53720317m-1.8403694-4.80883905c-2.76345646 0-4.62044854 1.98126649-4.62044854 4.93337731 0 2.41042216 1.43825857 4.8419525 4.62044854 4.8419525 3.1317942 0 4.76398417-2.08786279 4.76398417-5.02638522 0-1.49656992-.55897097-4.74894459-4.76398417-4.74894459" fill="#f79421" transform="translate(82.172428 26.130871)"/><g fill="#fff"><path d="m6.99208443 11.2583113c.07414248-.6701847-.20105541-1.45699204-.54881266-1.3790237-.46833773.11121372-.85620053.08601583-.85620053-.34762533 0-.56372032-.13166227-2.3378628.10712401-2.37968338.546438-.08113456 2.95356201-.03614776 3.52612137.04182058.27031663.02058048.06306069 2.30712401-.0883905 2.68548813-.12770448.3864116-.62598944-.27902375-1.08100264.1806069-.2262533.2333773-.38548812 1.1668865-.2151715 1.6131926.18205805.4368074.43825857.7167546.96266491.7426121.55976253.0356201 1.84973611-.1898417 2.31965701-.1898417.4542216 0 1.6778364.087467 2.3156992.1898417.7040897.1262533 1.226781-.544591 1.2844327-1.266095.0773087-.883905-.6292876-1.42730869-1.0895778-1.26081792-.4510554.17110822-.8650396.27836412-.9770449-.43443272-.0748021-.44076517-.0827177-5.90408971 0-6.41807388.1120053-.73799472.5259895-.51649076 1.194591-.43139841.4029024.07255936.9816623-.50540897.9816623-1.21253299 0-.72546174-.3453826-1.48865435-1.4011873-1.27585751-.3287599.06622691-1.8465699.06622691-2.3085752.0828496-.5724275.02598945-2.09656994-.0828496-2.50171506-.0828496-.70408971 0-.88390501 1.13153034-.80580475 1.58720316.06688654.45897098.26174142 1.05817942.77506596.90118734.41860159-.11266491.69775726-.10079156.69775726.29261213 0 .34366755.07480211 1.74802111.07480211 1.8969657-.923219 0-2.77453826-.04406332-3.69709763-.04406332-.07401055-.36912929-.07401055-1.91530343.07097626-2.10052771.14274406-.16635884.42572559.02124011.87361477-.1126649.46200528-.12704486.59525066-.97783642.46055409-1.49656992-.16728232-.69854882-.48654353-1.01794196-1.0621372-.96517151-.4817942.07651715-1.58720317.1853562-1.96569921.12387863-.37203166-.04736148-1.60131926.02598945-2.40870712-.0828496-.93746702-.11899737-1.37902375.25633245-1.47836412 1.20488126-.0858839.71187335.36583114 1.25118734.83970976 1.26226913.48245383.01187335 1.15277045-.36187335 1.2701847.40923483.08126649.57717678.03944591 5.8353562 0 6.28944591-.03073879.46530343-.21609499.8437995-.80817942.63562005-.74736148-.26015831-1.33562005.33126645-1.33562005 1.23166225 0 .7300792.60237467 1.3323219 1.15580475 1.3017151.46372031-.0356201 2.2944591-.2153035 2.7651715-.2254618.47467019-.0348285 1.69208443.2560686 2.15725594.2254618.49525066-.0356201.74036939-.6426122.79643799-1.193008" transform="translate(6.96847 23.238391)"/><path d="m11.7414248 8.48153034c.0489446.41543536.1718997.9469657.6402375 1.06372032.5448549.14102902 1.6005277-.17361478 1.8828496-.19881267.276781-.03944591 1.8332454.18522428 2.2542216.18522428.4564644 0 .7292876-.46200528.801847-1.22994723.0686016-.77506596-.4919525-1.08970976-.8405013-.98245383-.221504.05844328-.8389183.17110818-.8389183-.38786279 0-.26253298.0291557-2.60197889.0291557-3.05923483 0-.69472296.1490765-1.92467019-.701715-2.81807388-.6820581-.68509235-1.2180739-1.01002639-2.5467019-1.01002639-1.1149076 0-2.2605541.7939314-2.97097622 1.33496043-.33746702-.55897098-1.19920844-1.396438-2.66187335-1.29459103-.8474934.05026385-1.93007915.62744063-2.5262533 1.22664907-.02836411-.02757256.06939314-.97770448-.42018469-1.01635883-.35488127-.01952507-1.01952507.10026385-1.51226913.10026385-.45738786 0-1.05897098 0-1.43984169-.10026385-.45013193-.12282322-.73707124.61200527-.73707124 1.26886543 0 .44525066.14419525.9823219.87823219.9823219.23970976 0 .59920844-.2908971.73100264.13957784.11029024.29722955.07401055 3.75540897.04168865 4.20171504-.04168865.53931398-.24828496.52282322-.59920844.43205804-.70567282-.18060686-1.1141161.29722956-1.14327177.95567283-.04815303 1.03205804.65686016 1.32308707 1.33166227 1.25672823.64894459-.07242744 1.01794195-.22467019 1.39168865-.22467019.45343008 0 1.19617415.22467019 1.99406333.22467019.60158311 0 .95646438-.42335092.98957784-.99498681.0323219-.52440633-.10646438-1.03126649-.38799473-1.17163588-.30989446-.18918206-.52189973.20171504-.73007915-.22638523-.14353562-.27506596.01029023-2.51424802.01029023-2.55620052.02598945-.77889182.16081795-1.06675462.40989446-1.4050132.21688655-.32163588.81372032-.5944591 1.22691293-.5944591.42255937-.0182058 1.01240106.44709763 1.01240106.84129288 0 .3792876.0858839 3.35883905.03786279 3.65145118-.07176781.45092349-.47546174.16622692-.74670184.24353562-.32255937.09459103-.49683378.80659631-.40686016 1.21741425.06701847.44234829.24129288.92255937.67810026.99498681.36583114.05131926 1.44762533-.16002639 1.94432718-.18522428.50540897-.03944591 1.46108183.18522428 1.80158313.18522428.3422163 0 .5212401-.36029024.5937995-.64802111.0686015-.26187335.1182058-1.35699208-.2515832-1.50131926-.2744063-.09854881-.7560686.14432718-.8411609-.30659631-.0182058-.14050132-.0221636-1.55105541-.0182058-2.22994723.0182058-.38390501.1521108-1.33007915.3777045-1.60118733.3507915-.41952507.7726913-.63324538 1.1881266-.6616095.4407652-.04577836.91781.35 1.0605541.62994723.2317942.45646438.1364116 3.0151715.1364116 3.86279683 0 .51240106-.492876.16622692-.8058047.28931399-.208971.06147757-.3604222.66081794-.3170185 1.11649076" transform="translate(32.143008 26.122296)"/><path d="m6.33245383 6.90712401c-.34683378.41952507-.87440634.66306069-1.59116095.66306069-.59287599 0-1.14722956-.27440634-1.42941953-.70883905-.31451187-.48641161-.43047493-1.4019789.21134565-1.4317942.59366754-.02757256 3.99907651 0 4.66530343 0 .56055409 0 .90435356-.42889182.90435356-1.14102902 0-2.44722955-1.63060686-4.23390502-4.38852243-4.23390502-1.35395778 0-2.63984169.59287599-3.4944591 1.59656993l-.01266491.01424802c-.7262533.87836411-1.10778364 2.09089709-1.10778364 3.40844327 0 2.8969657 1.94195251 4.72704485 4.68984169 4.77810026 1.86372032.0348285 3.65751979-1.05171504 4.00448549-2.0389182.11675461-.31530343.13970976-1.10065963-.42255937-1.43812665-.80817942-.49511874-1.68812665.1096306-2.02875989.53218997m-.52902375-3.43931398h-2.41899736c-.45580475 0 0-1.29775726 1.35686016-1.29775726 1.44683377 0 1.6212401 1.29775726 1.0621372 1.29775726" transform="translate(49.983377 26.079024)"/><path d="m6.59630607 4.86253298c0 1.15277045-.32796834 2.71002639-1.80474934 2.71002639-1.2994723 0-1.67084433-1.51860159-1.67084433-2.63667546 0-1.32229552.51332454-2.5726913 1.67084433-2.60910291 1.13456464-.01965699 1.80474934.79630607 1.80474934 2.53575198m-1.84656992-4.8151715c-2.76899736 0-4.62598945 1.98298153-4.62598945 4.92783641 0 2.4262533 1.43509235 4.85316623 4.62598945 4.85316623 3.12941952 0 4.75989446-2.08865436 4.75989446-5.01068602 0-1.51068602-.56358839-4.77031662-4.75989446-4.77031662" transform="translate(22.115567 26.086148)"/><path d="m.13192612.15949868v-.01345646l-.01503958-.0141161z" transform="translate(30.44314 27.058707)"/></g></g></svg>
